<svg xmlns="http://www.w3.org/2000/svg" xmlns:xlink="http://www.w3.org/1999/xlink" contentStyleType="text/css" height="2633px" preserveAspectRatio="none" style="width:1868px;height:2633px;background:#FFFFFF;" version="1.1" viewBox="0 0 1868 2633" width="1868px" zoomAndPan="magnify"><defs/><g><rect fill="none" height="20.9531" style="stroke:none;stroke-width:1.0;" width="1835" x="15" y="12.7451"/><ellipse cx="345" cy="48.6982" fill="#222222" rx="10" ry="10" style="stroke:#222222;stroke-width:1.0;"/><rect fill="#F1F1F1" height="33.9688" rx="12.5" ry="12.5" style="stroke:#181818;stroke-width:0.5;" width="81" x="304.5" y="78.6982"/><text fill="#000000" font-family="sans-serif" font-size="12" lengthAdjust="spacing" textLength="61" x="314.5" y="99.8369">Open App</text><rect fill="#F1F1F1" height="33.9688" rx="12.5" ry="12.5" style="stroke:#181818;stroke-width:0.5;" width="140" x="275" y="132.667"/><text fill="#000000" font-family="sans-serif" font-size="12" lengthAdjust="spacing" textLength="120" x="285" y="153.8057">Grant Permissions?</text><polygon fill="#F1F1F1" points="284.5,186.6357,405.5,186.6357,417.5,198.6357,405.5,210.6357,284.5,210.6357,272.5,198.6357,284.5,186.6357" style="stroke:#181818;stroke-width:0.5;"/><text fill="#000000" font-family="sans-serif" font-size="11" lengthAdjust="spacing" textLength="121" x="284.5" y="202.4438">Permissions Granted</text><text fill="#000000" font-family="sans-serif" font-size="11" lengthAdjust="spacing" textLength="21" x="251.5" y="196.0415">Yes</text><text fill="#000000" font-family="sans-serif" font-size="11" lengthAdjust="spacing" textLength="15" x="417.5" y="196.0415">No</text><rect fill="#F1F1F1" height="33.9688" rx="12.5" ry="12.5" style="stroke:#181818;stroke-width:0.5;" width="129" x="371.5" y="230.6357"/><text fill="#000000" font-family="sans-serif" font-size="12" lengthAdjust="spacing" textLength="109" x="381.5" y="251.7744">Prompt to Enable</text><ellipse cx="436" cy="295.6045" fill="none" rx="11" ry="11" style="stroke:#222222;stroke-width:1.0;"/><ellipse cx="436" cy="295.6045" fill="#222222" rx="6" ry="6" style="stroke:#222222;stroke-width:1.0;"/><rect fill="#F1F1F1" height="33.9688" rx="12.5" ry="12.5" style="stroke:#181818;stroke-width:0.5;" width="214" x="238" y="446.5107"/><text fill="#000000" font-family="sans-serif" font-size="12" lengthAdjust="spacing" textLength="194" x="248" y="467.6494">Choose Authentication Method</text><polygon fill="#F1F1F1" points="143,500.4795,187,500.4795,199,512.4795,187,524.4795,143,524.4795,131,512.4795,143,500.4795" style="stroke:#181818;stroke-width:0.5;"/><text fill="#000000" font-family="sans-serif" font-size="11" lengthAdjust="spacing" textLength="21" x="169" y="534.6899">Yes</text><text fill="#000000" font-family="sans-serif" font-size="11" lengthAdjust="spacing" textLength="44" x="143" y="516.2876">Sign Up</text><rect fill="#F1F1F1" height="33.9688" rx="12.5" ry="12.5" style="stroke:#181818;stroke-width:0.5;" width="288" x="21" y="557.2842"/><text fill="#000000" font-family="sans-serif" font-size="12" lengthAdjust="spacing" textLength="268" x="31" y="578.4229">Enter Details (Username, Email, Password)</text><polygon fill="#F1F1F1" points="382.5,500.4795,421.5,500.4795,433.5,512.4795,421.5,524.4795,382.5,524.4795,370.5,512.4795,382.5,500.4795" style="stroke:#181818;stroke-width:0.5;"/><text fill="#000000" font-family="sans-serif" font-size="11" lengthAdjust="spacing" textLength="39" x="382.5" y="516.2876">Sign In</text><text fill="#000000" font-family="sans-serif" font-size="11" lengthAdjust="spacing" textLength="138" x="433.5" y="509.8853">Continue Without Sign In</text><rect fill="#F1F1F1" height="33.9688" rx="12.5" ry="12.5" style="stroke:#181818;stroke-width:0.5;" width="129" x="337.5" y="544.4795"/><text fill="#000000" font-family="sans-serif" font-size="12" lengthAdjust="spacing" textLength="109" x="347.5" y="565.6182">Enter Credentials</text><rect fill="#F1F1F1" height="33.9688" rx="12.5" ry="12.5" style="stroke:#181818;stroke-width:0.5;" width="174" x="495" y="620.6553"/><text fill="#000000" font-family="sans-serif" font-size="12" lengthAdjust="spacing" textLength="154" x="505" y="641.7939">Continue Without Sign In</text><rect fill="#F1F1F1" height="33.9688" rx="12.5" ry="12.5" style="stroke:#181818;stroke-width:0.5;" width="152" x="269" y="764.7998"/><text fill="#000000" font-family="sans-serif" font-size="12" lengthAdjust="spacing" textLength="132" x="279" y="785.9385">Display Home Screen</text><rect fill="#F1F1F1" height="33.9688" rx="12.5" ry="12.5" style="stroke:#181818;stroke-width:0.5;" width="195" x="247.5" y="818.7686"/><text fill="#000000" font-family="sans-serif" font-size="12" lengthAdjust="spacing" textLength="175" x="257.5" y="839.9072">View Real-time Temperature</text><rect fill="#F1F1F1" height="33.9688" rx="12.5" ry="12.5" style="stroke:#181818;stroke-width:0.5;" width="149" x="270.5" y="980.6748"/><text fill="#000000" font-family="sans-serif" font-size="12" lengthAdjust="spacing" textLength="129" x="280.5" y="1001.8135">Display Temperature</text><rect fill="#F1F1F1" height="33.9688" rx="12.5" ry="12.5" style="stroke:#181818;stroke-width:0.5;" width="144" x="273" y="1034.6436"/><text fill="#000000" font-family="sans-serif" font-size="12" lengthAdjust="spacing" textLength="124" x="283" y="1055.7822">View Disaster Alerts</text><rect fill="#F1F1F1" height="33.9688" rx="12.5" ry="12.5" style="stroke:#181818;stroke-width:0.5;" width="104" x="293" y="1196.5498"/><text fill="#000000" font-family="sans-serif" font-size="12" lengthAdjust="spacing" textLength="84" x="303" y="1217.6885">Display Alerts</text><rect fill="#F1F1F1" height="33.9688" rx="12.5" ry="12.5" style="stroke:#181818;stroke-width:0.5;" width="160" x="265" y="1250.5186"/><text fill="#000000" font-family="sans-serif" font-size="12" lengthAdjust="spacing" textLength="140" x="275" y="1271.6572">View Safety Guidelines</text><rect fill="#F1F1F1" height="33.9688" rx="12.5" ry="12.5" style="stroke:#181818;stroke-width:0.5;" width="133" x="278.5" y="1412.4248"/><text fill="#000000" font-family="sans-serif" font-size="12" lengthAdjust="spacing" textLength="113" x="288.5" y="1433.5635">Display Guidelines</text><rect fill="#F1F1F1" height="33.9688" rx="12.5" ry="12.5" style="stroke:#181818;stroke-width:0.5;" width="312" x="189" y="1466.3936"/><text fill="#000000" font-family="sans-serif" font-size="12" lengthAdjust="spacing" textLength="292" x="199" y="1487.5322">Submit Emergency Report (Description, Media)</text><rect fill="#F1F1F1" height="33.9688" rx="12.5" ry="12.5" style="stroke:#181818;stroke-width:0.5;" width="94" x="298" y="1790.2061"/><text fill="#000000" font-family="sans-serif" font-size="12" lengthAdjust="spacing" textLength="74" x="308" y="1811.3447">Display Map</text><rect fill="#F1F1F1" height="33.9688" rx="12.5" ry="12.5" style="stroke:#181818;stroke-width:0.5;" width="203" x="243.5" y="1844.1748"/><text fill="#000000" font-family="sans-serif" font-size="12" lengthAdjust="spacing" textLength="183" x="253.5" y="1865.3135">Manage Emergency Contacts</text><rect fill="#F1F1F1" height="33.9688" rx="12.5" ry="12.5" style="stroke:#181818;stroke-width:0.5;" width="139" x="275.5" y="2114.0186"/><text fill="#000000" font-family="sans-serif" font-size="12" lengthAdjust="spacing" textLength="119" x="285.5" y="2135.1572">Display Notification</text><rect fill="#F1F1F1" height="33.9688" rx="12.5" ry="12.5" style="stroke:#181818;stroke-width:0.5;" width="177" x="256.5" y="2167.9873"/><text fill="#000000" font-family="sans-serif" font-size="12" lengthAdjust="spacing" textLength="157" x="266.5" y="2189.126">Request Emergency Help</text><line style="stroke:#000000;stroke-width:1.5;" x1="15" x2="15" y1="12.7451" y2="2621.7373"/><rect fill="#F1F1F1" height="33.9688" rx="12.5" ry="12.5" style="stroke:#181818;stroke-width:0.5;" width="177" x="680" y="230.6357"/><text fill="#000000" font-family="sans-serif" font-size="12" lengthAdjust="spacing" textLength="157" x="690" y="251.7744">Request Location Access</text><rect fill="#F1F1F1" height="33.9688" rx="12.5" ry="12.5" style="stroke:#181818;stroke-width:0.5;" width="176" x="680.5" y="284.6045"/><text fill="#000000" font-family="sans-serif" font-size="12" lengthAdjust="spacing" textLength="156" x="690.5" y="305.7432">Location Access Granted</text><line style="stroke:#000000;stroke-width:1.5;" x1="674" x2="674" y1="12.7451" y2="2621.7373"/><rect fill="#F1F1F1" height="33.9688" rx="12.5" ry="12.5" style="stroke:#181818;stroke-width:0.5;" width="195" x="867" y="338.5732"/><text fill="#000000" font-family="sans-serif" font-size="12" lengthAdjust="spacing" textLength="175" x="877" y="359.7119">Request Notification Access</text><rect fill="#F1F1F1" height="33.9688" rx="12.5" ry="12.5" style="stroke:#181818;stroke-width:0.5;" width="194" x="867.5" y="392.542"/><text fill="#000000" font-family="sans-serif" font-size="12" lengthAdjust="spacing" textLength="174" x="877.5" y="413.6807">Notification Access Granted</text><rect fill="#F1F1F1" height="33.9688" rx="12.5" ry="12.5" style="stroke:#181818;stroke-width:0.5;" width="127" x="992" y="2060.0498"/><text fill="#000000" font-family="sans-serif" font-size="12" lengthAdjust="spacing" textLength="107" x="1002" y="2081.1885">Send Notification</text><line style="stroke:#000000;stroke-width:1.5;" x1="861" x2="861" y1="12.7451" y2="2621.7373"/><rect fill="#F1F1F1" height="33.9688" rx="12.5" ry="12.5" style="stroke:#181818;stroke-width:0.5;" width="121" x="1138" y="624.0576"/><text fill="#000000" font-family="sans-serif" font-size="12" lengthAdjust="spacing" textLength="101" x="1148" y="645.1963">Store User Data</text><rect fill="#F1F1F1" height="33.9688" rx="12.5" ry="12.5" style="stroke:#181818;stroke-width:0.5;" width="99" x="1149" y="690.8311"/><text fill="#000000" font-family="sans-serif" font-size="12" lengthAdjust="spacing" textLength="79" x="1159" y="711.9697">Confirmation</text><rect fill="#F1F1F1" height="33.9688" rx="12.5" ry="12.5" style="stroke:#181818;stroke-width:0.5;" width="146" x="1328" y="611.2529"/><text fill="#000000" font-family="sans-serif" font-size="12" lengthAdjust="spacing" textLength="126" x="1338" y="632.3916">Validate Credentials</text><rect fill="#F1F1F1" height="33.9688" rx="12.5" ry="12.5" style="stroke:#181818;stroke-width:0.5;" width="125" x="1338.5" y="678.0264"/><text fill="#000000" font-family="sans-serif" font-size="12" lengthAdjust="spacing" textLength="105" x="1348.5" y="699.165">Credentials Valid</text><rect fill="#F1F1F1" height="33.9688" rx="12.5" ry="12.5" style="stroke:#181818;stroke-width:0.5;" width="124" x="1282" y="1304.4873"/><text fill="#000000" font-family="sans-serif" font-size="12" lengthAdjust="spacing" textLength="104" x="1292" y="1325.626">Fetch Guidelines</text><rect fill="#F1F1F1" height="33.9688" rx="12.5" ry="12.5" style="stroke:#181818;stroke-width:0.5;" width="119" x="1284.5" y="1358.4561"/><text fill="#000000" font-family="sans-serif" font-size="12" lengthAdjust="spacing" textLength="99" x="1294.5" y="1379.5947">Guidelines Data</text><rect fill="#F1F1F1" height="33.9688" rx="12.5" ry="12.5" style="stroke:#181818;stroke-width:0.5;" width="134" x="1277" y="1520.3623"/><text fill="#000000" font-family="sans-serif" font-size="12" lengthAdjust="spacing" textLength="114" x="1287" y="1541.501">Store Report Data</text><rect fill="#F1F1F1" height="33.9688" rx="12.5" ry="12.5" style="stroke:#181818;stroke-width:0.5;" width="99" x="1294.5" y="1574.3311"/><text fill="#000000" font-family="sans-serif" font-size="12" lengthAdjust="spacing" textLength="79" x="1304.5" y="1595.4697">Confirmation</text><rect fill="#F1F1F1" height="33.9688" rx="12.5" ry="12.5" style="stroke:#181818;stroke-width:0.5;" width="140" x="1274" y="1628.2998"/><text fill="#000000" font-family="sans-serif" font-size="12" lengthAdjust="spacing" textLength="120" x="1284" y="1649.4385">View Real-time Map</text><rect fill="#F1F1F1" height="33.9688" rx="12.5" ry="12.5" style="stroke:#181818;stroke-width:0.5;" width="126" x="1281" y="1898.1436"/><text fill="#000000" font-family="sans-serif" font-size="12" lengthAdjust="spacing" textLength="106" x="1291" y="1919.2822">Update Contacts</text><rect fill="#F1F1F1" height="33.9688" rx="12.5" ry="12.5" style="stroke:#181818;stroke-width:0.5;" width="99" x="1294.5" y="1952.1123"/><text fill="#000000" font-family="sans-serif" font-size="12" lengthAdjust="spacing" textLength="79" x="1304.5" y="1973.251">Confirmation</text><rect fill="#F1F1F1" height="33.9688" rx="12.5" ry="12.5" style="stroke:#181818;stroke-width:0.5;" width="150" x="1269" y="2006.0811"/><text fill="#000000" font-family="sans-serif" font-size="12" lengthAdjust="spacing" textLength="130" x="1279" y="2027.2197">Receive Notifications</text><rect fill="#F1F1F1" height="33.9688" rx="12.5" ry="12.5" style="stroke:#181818;stroke-width:0.5;" width="144" x="1272" y="2437.8311"/><text fill="#000000" font-family="sans-serif" font-size="12" lengthAdjust="spacing" textLength="124" x="1282" y="2458.9697">Update User Status</text><rect fill="#F1F1F1" height="33.9688" rx="12.5" ry="12.5" style="stroke:#181818;stroke-width:0.5;" width="99" x="1294.5" y="2491.7998"/><text fill="#000000" font-family="sans-serif" font-size="12" lengthAdjust="spacing" textLength="79" x="1304.5" y="2512.9385">Confirmation</text><rect fill="#F1F1F1" height="33.9688" rx="12.5" ry="12.5" style="stroke:#181818;stroke-width:0.5;" width="82" x="1303" y="2545.7686"/><text fill="#000000" font-family="sans-serif" font-size="12" lengthAdjust="spacing" textLength="62" x="1313" y="2566.9072">Close App</text><ellipse cx="1344" cy="2610.7373" fill="none" rx="11" ry="11" style="stroke:#222222;stroke-width:1.0;"/><ellipse cx="1344" cy="2610.7373" fill="#222222" rx="6" ry="6" style="stroke:#222222;stroke-width:1.0;"/><line style="stroke:#000000;stroke-width:1.5;" x1="1123" x2="1123" y1="12.7451" y2="2621.7373"/><rect fill="#F1F1F1" height="33.9688" rx="12.5" ry="12.5" style="stroke:#181818;stroke-width:0.5;" width="191" x="1484" y="872.7373"/><text fill="#000000" font-family="sans-serif" font-size="12" lengthAdjust="spacing" textLength="171" x="1494" y="893.876">Request Temperature Data</text><rect fill="#F1F1F1" height="33.9688" rx="12.5" ry="12.5" style="stroke:#181818;stroke-width:0.5;" width="171" x="1494" y="926.7061"/><text fill="#000000" font-family="sans-serif" font-size="12" lengthAdjust="spacing" textLength="151" x="1504" y="947.8447">Send Temperature Data</text><line style="stroke:#000000;stroke-width:1.5;" x1="1478" x2="1478" y1="12.7451" y2="2621.7373"/><rect fill="#F1F1F1" height="33.9688" rx="12.5" ry="12.5" style="stroke:#181818;stroke-width:0.5;" width="146" x="1691.5" y="1088.6123"/><text fill="#000000" font-family="sans-serif" font-size="12" lengthAdjust="spacing" textLength="126" x="1701.5" y="1109.751">Request Alerts Data</text><rect fill="#F1F1F1" height="33.9688" rx="12.5" ry="12.5" style="stroke:#181818;stroke-width:0.5;" width="126" x="1701.5" y="1142.5811"/><text fill="#000000" font-family="sans-serif" font-size="12" lengthAdjust="spacing" textLength="106" x="1711.5" y="1163.7197">Send Alerts Data</text><rect fill="#F1F1F1" height="33.9688" rx="12.5" ry="12.5" style="stroke:#181818;stroke-width:0.5;" width="136" x="1696.5" y="1682.2686"/><text fill="#000000" font-family="sans-serif" font-size="12" lengthAdjust="spacing" textLength="116" x="1706.5" y="1703.4072">Request Map Data</text><rect fill="#F1F1F1" height="33.9688" rx="12.5" ry="12.5" style="stroke:#181818;stroke-width:0.5;" width="116" x="1706.5" y="1736.2373"/><text fill="#000000" font-family="sans-serif" font-size="12" lengthAdjust="spacing" textLength="96" x="1716.5" y="1757.376">Send Map Data</text><rect fill="#F1F1F1" height="33.9688" rx="12.5" ry="12.5" style="stroke:#181818;stroke-width:0.5;" width="110" x="1709.5" y="2221.9561"/><text fill="#000000" font-family="sans-serif" font-size="12" lengthAdjust="spacing" textLength="90" x="1719.5" y="2243.0947">Verify Request</text><rect fill="#F1F1F1" height="33.9688" rx="12.5" ry="12.5" style="stroke:#181818;stroke-width:0.5;" width="146" x="1691.5" y="2275.9248"/><text fill="#000000" font-family="sans-serif" font-size="12" lengthAdjust="spacing" textLength="126" x="1701.5" y="2297.0635">Verification Success</text><rect fill="#F1F1F1" height="33.9688" rx="12.5" ry="12.5" style="stroke:#181818;stroke-width:0.5;" width="159" x="1685" y="2329.8936"/><text fill="#000000" font-family="sans-serif" font-size="12" lengthAdjust="spacing" textLength="139" x="1695" y="2351.0322">Display Rescue Status</text><rect fill="#F1F1F1" height="33.9688" rx="12.5" ry="12.5" style="stroke:#181818;stroke-width:0.5;" width="63" x="1733" y="2383.8623"/><text fill="#000000" font-family="sans-serif" font-size="12" lengthAdjust="spacing" textLength="43" x="1743" y="2405.001">Logout</text><line style="stroke:#000000;stroke-width:1.5;" x1="1679" x2="1679" y1="12.7451" y2="2621.7373"/><line style="stroke:#000000;stroke-width:1.5;" x1="1848" x2="1848" y1="12.7451" y2="2621.7373"/><line style="stroke:#181818;stroke-width:1.0;" x1="345" x2="345" y1="58.6982" y2="78.6982"/><polygon fill="#181818" points="341,68.6982,345,78.6982,349,68.6982,345,72.6982" style="stroke:#181818;stroke-width:1.0;"/><line style="stroke:#181818;stroke-width:1.0;" x1="345" x2="345" y1="112.667" y2="132.667"/><polygon fill="#181818" points="341,122.667,345,132.667,349,122.667,345,126.667" style="stroke:#181818;stroke-width:1.0;"/><line style="stroke:#181818;stroke-width:1.0;" x1="436" x2="436" y1="264.6045" y2="284.6045"/><polygon fill="#181818" points="432,274.6045,436,284.6045,440,274.6045,436,278.6045" style="stroke:#181818;stroke-width:1.0;"/><line style="stroke:#181818;stroke-width:1.0;" x1="417.5" x2="436" y1="198.6357" y2="198.6357"/><line style="stroke:#181818;stroke-width:1.0;" x1="436" x2="436" y1="198.6357" y2="230.6357"/><polygon fill="#181818" points="432,220.6357,436,230.6357,440,220.6357,436,224.6357" style="stroke:#181818;stroke-width:1.0;"/><line style="stroke:#181818;stroke-width:1.0;" x1="345" x2="345" y1="166.6357" y2="186.6357"/><polygon fill="#181818" points="341,176.6357,345,186.6357,349,176.6357,345,180.6357" style="stroke:#181818;stroke-width:1.0;"/><line style="stroke:#181818;stroke-width:1.0;" x1="964.5" x2="964.5" y1="426.5107" y2="430.5107"/><line style="stroke:#181818;stroke-width:1.0;" x1="964.5" x2="345" y1="430.5107" y2="430.5107"/><line style="stroke:#181818;stroke-width:1.0;" x1="345" x2="345" y1="430.5107" y2="446.5107"/><polygon fill="#181818" points="341,436.5107,345,446.5107,349,436.5107,345,440.5107" style="stroke:#181818;stroke-width:1.0;"/><line style="stroke:#181818;stroke-width:1.0;" x1="165" x2="165" y1="524.4795" y2="557.2842"/><polygon fill="#181818" points="161,547.2842,165,557.2842,169,547.2842,165,551.2842" style="stroke:#181818;stroke-width:1.0;"/><line style="stroke:#181818;stroke-width:1.0;" x1="402" x2="402" y1="524.4795" y2="544.4795"/><polygon fill="#181818" points="398,534.4795,402,544.4795,406,534.4795,402,538.4795" style="stroke:#181818;stroke-width:1.0;"/><line style="stroke:#181818;stroke-width:1.0;" x1="199" x2="370.5" y1="512.4795" y2="512.4795"/><polygon fill="#181818" points="360.5,508.4795,370.5,512.4795,360.5,516.4795,364.5,512.4795" style="stroke:#181818;stroke-width:1.0;"/><line style="stroke:#181818;stroke-width:1.0;" x1="345" x2="345" y1="480.4795" y2="485.4795"/><line style="stroke:#181818;stroke-width:1.0;" x1="345" x2="165" y1="485.4795" y2="485.4795"/><line style="stroke:#181818;stroke-width:1.0;" x1="165" x2="165" y1="485.4795" y2="500.4795"/><polygon fill="#181818" points="161,490.4795,165,500.4795,169,490.4795,165,494.4795" style="stroke:#181818;stroke-width:1.0;"/><line style="stroke:#181818;stroke-width:1.0;" x1="433.5" x2="582" y1="512.4795" y2="512.4795"/><line style="stroke:#181818;stroke-width:1.0;" x1="582" x2="582" y1="512.4795" y2="620.6553"/><polygon fill="#181818" points="578,610.6553,582,620.6553,586,610.6553,582,614.6553" style="stroke:#181818;stroke-width:1.0;"/><line style="stroke:#181818;stroke-width:1.0;" x1="582" x2="582" y1="654.624" y2="744.7998"/><polygon fill="#181818" points="578,734.7998,582,744.7998,586,734.7998,582,738.7998" style="stroke:#181818;stroke-width:1.0;"/><line style="stroke:#181818;stroke-width:1.0;" x1="345" x2="669" y1="744.7998" y2="744.7998"/><line style="stroke:#181818;stroke-width:1.0;" x1="345" x2="345" y1="744.7998" y2="764.7998"/><polygon fill="#181818" points="341,754.7998,345,764.7998,349,754.7998,345,758.7998" style="stroke:#181818;stroke-width:1.0;"/><line style="stroke:#181818;stroke-width:1.0;" x1="345" x2="345" y1="798.7686" y2="818.7686"/><polygon fill="#181818" points="341,808.7686,345,818.7686,349,808.7686,345,812.7686" style="stroke:#181818;stroke-width:1.0;"/><line style="stroke:#181818;stroke-width:1.0;" x1="345" x2="345" y1="1014.6436" y2="1034.6436"/><polygon fill="#181818" points="341,1024.6436,345,1034.6436,349,1024.6436,345,1028.6436" style="stroke:#181818;stroke-width:1.0;"/><line style="stroke:#181818;stroke-width:1.0;" x1="345" x2="345" y1="1230.5186" y2="1250.5186"/><polygon fill="#181818" points="341,1240.5186,345,1250.5186,349,1240.5186,345,1244.5186" style="stroke:#181818;stroke-width:1.0;"/><line style="stroke:#181818;stroke-width:1.0;" x1="345" x2="345" y1="1446.3936" y2="1466.3936"/><polygon fill="#181818" points="341,1456.3936,345,1466.3936,349,1456.3936,345,1460.3936" style="stroke:#181818;stroke-width:1.0;"/><line style="stroke:#181818;stroke-width:1.0;" x1="345" x2="345" y1="1824.1748" y2="1844.1748"/><polygon fill="#181818" points="341,1834.1748,345,1844.1748,349,1834.1748,345,1838.1748" style="stroke:#181818;stroke-width:1.0;"/><line style="stroke:#181818;stroke-width:1.0;" x1="345" x2="345" y1="2147.9873" y2="2167.9873"/><polygon fill="#181818" points="341,2157.9873,345,2167.9873,349,2157.9873,345,2161.9873" style="stroke:#181818;stroke-width:1.0;"/><line style="stroke:#181818;stroke-width:1.0;" x1="768.5" x2="768.5" y1="264.6045" y2="284.6045"/><polygon fill="#181818" points="764.5,274.6045,768.5,284.6045,772.5,274.6045,768.5,278.6045" style="stroke:#181818;stroke-width:1.0;"/><line style="stroke:#181818;stroke-width:1.0;" x1="964.5" x2="964.5" y1="372.542" y2="392.542"/><polygon fill="#181818" points="960.5,382.542,964.5,392.542,968.5,382.542,964.5,386.542" style="stroke:#181818;stroke-width:1.0;"/><line style="stroke:#181818;stroke-width:1.0;" x1="1198.5" x2="1198.5" y1="658.0264" y2="690.8311"/><polygon fill="#181818" points="1194.5,680.8311,1198.5,690.8311,1202.5,680.8311,1198.5,684.8311" style="stroke:#181818;stroke-width:1.0;"/><line style="stroke:#181818;stroke-width:1.0;" x1="1401" x2="1401" y1="645.2217" y2="678.0264"/><polygon fill="#181818" points="1397,668.0264,1401,678.0264,1405,668.0264,1401,672.0264" style="stroke:#181818;stroke-width:1.0;"/><line style="stroke:#181818;stroke-width:1.0;" x1="1198.5" x2="1198.5" y1="724.7998" y2="744.7998"/><polygon fill="#181818" points="1194.5,734.7998,1198.5,744.7998,1202.5,734.7998,1198.5,738.7998" style="stroke:#181818;stroke-width:1.0;"/><line style="stroke:#181818;stroke-width:1.0;" x1="1401" x2="1401" y1="711.9951" y2="744.7998"/><polygon fill="#181818" points="1397,734.7998,1401,744.7998,1405,734.7998,1401,738.7998" style="stroke:#181818;stroke-width:1.0;"/><line style="stroke:#181818;stroke-width:1.0;" x1="1128" x2="1401" y1="744.7998" y2="744.7998"/><line style="stroke:#181818;stroke-width:1.0;" x1="1344" x2="1344" y1="1338.4561" y2="1358.4561"/><polygon fill="#181818" points="1340,1348.4561,1344,1358.4561,1348,1348.4561,1344,1352.4561" style="stroke:#181818;stroke-width:1.0;"/><line style="stroke:#181818;stroke-width:1.0;" x1="1344" x2="1344" y1="1554.3311" y2="1574.3311"/><polygon fill="#181818" points="1340,1564.3311,1344,1574.3311,1348,1564.3311,1344,1568.3311" style="stroke:#181818;stroke-width:1.0;"/><line style="stroke:#181818;stroke-width:1.0;" x1="1344" x2="1344" y1="1608.2998" y2="1628.2998"/><polygon fill="#181818" points="1340,1618.2998,1344,1628.2998,1348,1618.2998,1344,1622.2998" style="stroke:#181818;stroke-width:1.0;"/><line style="stroke:#181818;stroke-width:1.0;" x1="1344" x2="1344" y1="1932.1123" y2="1952.1123"/><polygon fill="#181818" points="1340,1942.1123,1344,1952.1123,1348,1942.1123,1344,1946.1123" style="stroke:#181818;stroke-width:1.0;"/><line style="stroke:#181818;stroke-width:1.0;" x1="1344" x2="1344" y1="1986.0811" y2="2006.0811"/><polygon fill="#181818" points="1340,1996.0811,1344,2006.0811,1348,1996.0811,1344,2000.0811" style="stroke:#181818;stroke-width:1.0;"/><line style="stroke:#181818;stroke-width:1.0;" x1="1344" x2="1344" y1="2471.7998" y2="2491.7998"/><polygon fill="#181818" points="1340,2481.7998,1344,2491.7998,1348,2481.7998,1344,2485.7998" style="stroke:#181818;stroke-width:1.0;"/><line style="stroke:#181818;stroke-width:1.0;" x1="1344" x2="1344" y1="2525.7686" y2="2545.7686"/><polygon fill="#181818" points="1340,2535.7686,1344,2545.7686,1348,2535.7686,1344,2539.7686" style="stroke:#181818;stroke-width:1.0;"/><line style="stroke:#181818;stroke-width:1.0;" x1="1344" x2="1344" y1="2579.7373" y2="2599.7373"/><polygon fill="#181818" points="1340,2589.7373,1344,2599.7373,1348,2589.7373,1344,2593.7373" style="stroke:#181818;stroke-width:1.0;"/><line style="stroke:#181818;stroke-width:1.0;" x1="1579.5" x2="1579.5" y1="906.7061" y2="926.7061"/><polygon fill="#181818" points="1575.5,916.7061,1579.5,926.7061,1583.5,916.7061,1579.5,920.7061" style="stroke:#181818;stroke-width:1.0;"/><line style="stroke:#181818;stroke-width:1.0;" x1="1764.5" x2="1764.5" y1="1122.5811" y2="1142.5811"/><polygon fill="#181818" points="1760.5,1132.5811,1764.5,1142.5811,1768.5,1132.5811,1764.5,1136.5811" style="stroke:#181818;stroke-width:1.0;"/><line style="stroke:#181818;stroke-width:1.0;" x1="1764.5" x2="1764.5" y1="1716.2373" y2="1736.2373"/><polygon fill="#181818" points="1760.5,1726.2373,1764.5,1736.2373,1768.5,1726.2373,1764.5,1730.2373" style="stroke:#181818;stroke-width:1.0;"/><line style="stroke:#181818;stroke-width:1.0;" x1="1764.5" x2="1764.5" y1="2255.9248" y2="2275.9248"/><polygon fill="#181818" points="1760.5,2265.9248,1764.5,2275.9248,1768.5,2265.9248,1764.5,2269.9248" style="stroke:#181818;stroke-width:1.0;"/><line style="stroke:#181818;stroke-width:1.0;" x1="1764.5" x2="1764.5" y1="2309.8936" y2="2329.8936"/><polygon fill="#181818" points="1760.5,2319.8936,1764.5,2329.8936,1768.5,2319.8936,1764.5,2323.8936" style="stroke:#181818;stroke-width:1.0;"/><line style="stroke:#181818;stroke-width:1.0;" x1="1764.5" x2="1764.5" y1="2363.8623" y2="2383.8623"/><polygon fill="#181818" points="1760.5,2373.8623,1764.5,2383.8623,1768.5,2373.8623,1764.5,2377.8623" style="stroke:#181818;stroke-width:1.0;"/><line style="stroke:#181818;stroke-width:1.0;" x1="768.5" x2="768.5" y1="318.5732" y2="323.5732"/><line style="stroke:#181818;stroke-width:1.0;" x1="768.5" x2="964.5" y1="323.5732" y2="323.5732"/><line style="stroke:#181818;stroke-width:1.0;" x1="964.5" x2="964.5" y1="323.5732" y2="338.5732"/><polygon fill="#181818" points="960.5,328.5732,964.5,338.5732,968.5,328.5732,964.5,332.5732" style="stroke:#181818;stroke-width:1.0;"/><line style="stroke:#181818;stroke-width:1.0;" x1="272.5" x2="260.5" y1="198.6357" y2="198.6357"/><line style="stroke:#181818;stroke-width:1.0;" x1="260.5" x2="260.5" y1="198.6357" y2="216.6357"/><line style="stroke:#181818;stroke-width:1.0;" x1="260.5" x2="768.5" y1="216.6357" y2="216.6357"/><line style="stroke:#181818;stroke-width:1.0;" x1="768.5" x2="768.5" y1="216.6357" y2="230.6357"/><polygon fill="#181818" points="764.5,220.6357,768.5,230.6357,772.5,220.6357,768.5,224.6357" style="stroke:#181818;stroke-width:1.0;"/><line style="stroke:#181818;stroke-width:1.0;" x1="165" x2="165" y1="591.2529" y2="606.5576"/><line style="stroke:#181818;stroke-width:1.0;" x1="165" x2="1198.5" y1="606.5576" y2="606.5576"/><line style="stroke:#181818;stroke-width:1.0;" x1="1198.5" x2="1198.5" y1="606.5576" y2="624.0576"/><polygon fill="#181818" points="1194.5,614.0576,1198.5,624.0576,1202.5,614.0576,1198.5,618.0576" style="stroke:#181818;stroke-width:1.0;"/><line style="stroke:#181818;stroke-width:1.0;" x1="402" x2="402" y1="578.4482" y2="595.9482"/><line style="stroke:#181818;stroke-width:1.0;" x1="402" x2="1401" y1="595.9482" y2="595.9482"/><line style="stroke:#181818;stroke-width:1.0;" x1="1401" x2="1401" y1="595.9482" y2="611.2529"/><polygon fill="#181818" points="1397,601.2529,1401,611.2529,1405,601.2529,1401,605.2529" style="stroke:#181818;stroke-width:1.0;"/><line style="stroke:#181818;stroke-width:1.0;" x1="345" x2="345" y1="852.7373" y2="857.7373"/><line style="stroke:#181818;stroke-width:1.0;" x1="345" x2="1579.5" y1="857.7373" y2="857.7373"/><line style="stroke:#181818;stroke-width:1.0;" x1="1579.5" x2="1579.5" y1="857.7373" y2="872.7373"/><polygon fill="#181818" points="1575.5,862.7373,1579.5,872.7373,1583.5,862.7373,1579.5,866.7373" style="stroke:#181818;stroke-width:1.0;"/><line style="stroke:#181818;stroke-width:1.0;" x1="1579.5" x2="1579.5" y1="960.6748" y2="965.6748"/><line style="stroke:#181818;stroke-width:1.0;" x1="1579.5" x2="345" y1="965.6748" y2="965.6748"/><line style="stroke:#181818;stroke-width:1.0;" x1="345" x2="345" y1="965.6748" y2="980.6748"/><polygon fill="#181818" points="341,970.6748,345,980.6748,349,970.6748,345,974.6748" style="stroke:#181818;stroke-width:1.0;"/><line style="stroke:#181818;stroke-width:1.0;" x1="345" x2="345" y1="1068.6123" y2="1073.6123"/><line style="stroke:#181818;stroke-width:1.0;" x1="345" x2="1764.5" y1="1073.6123" y2="1073.6123"/><line style="stroke:#181818;stroke-width:1.0;" x1="1764.5" x2="1764.5" y1="1073.6123" y2="1088.6123"/><polygon fill="#181818" points="1760.5,1078.6123,1764.5,1088.6123,1768.5,1078.6123,1764.5,1082.6123" style="stroke:#181818;stroke-width:1.0;"/><line style="stroke:#181818;stroke-width:1.0;" x1="1764.5" x2="1764.5" y1="1176.5498" y2="1181.5498"/><line style="stroke:#181818;stroke-width:1.0;" x1="1764.5" x2="345" y1="1181.5498" y2="1181.5498"/><line style="stroke:#181818;stroke-width:1.0;" x1="345" x2="345" y1="1181.5498" y2="1196.5498"/><polygon fill="#181818" points="341,1186.5498,345,1196.5498,349,1186.5498,345,1190.5498" style="stroke:#181818;stroke-width:1.0;"/><line style="stroke:#181818;stroke-width:1.0;" x1="345" x2="345" y1="1284.4873" y2="1289.4873"/><line style="stroke:#181818;stroke-width:1.0;" x1="345" x2="1344" y1="1289.4873" y2="1289.4873"/><line style="stroke:#181818;stroke-width:1.0;" x1="1344" x2="1344" y1="1289.4873" y2="1304.4873"/><polygon fill="#181818" points="1340,1294.4873,1344,1304.4873,1348,1294.4873,1344,1298.4873" style="stroke:#181818;stroke-width:1.0;"/><line style="stroke:#181818;stroke-width:1.0;" x1="1344" x2="1344" y1="1392.4248" y2="1397.4248"/><line style="stroke:#181818;stroke-width:1.0;" x1="1344" x2="345" y1="1397.4248" y2="1397.4248"/><line style="stroke:#181818;stroke-width:1.0;" x1="345" x2="345" y1="1397.4248" y2="1412.4248"/><polygon fill="#181818" points="341,1402.4248,345,1412.4248,349,1402.4248,345,1406.4248" style="stroke:#181818;stroke-width:1.0;"/><line style="stroke:#181818;stroke-width:1.0;" x1="345" x2="345" y1="1500.3623" y2="1505.3623"/><line style="stroke:#181818;stroke-width:1.0;" x1="345" x2="1344" y1="1505.3623" y2="1505.3623"/><line style="stroke:#181818;stroke-width:1.0;" x1="1344" x2="1344" y1="1505.3623" y2="1520.3623"/><polygon fill="#181818" points="1340,1510.3623,1344,1520.3623,1348,1510.3623,1344,1514.3623" style="stroke:#181818;stroke-width:1.0;"/><line style="stroke:#181818;stroke-width:1.0;" x1="1344" x2="1344" y1="1662.2686" y2="1667.2686"/><line style="stroke:#181818;stroke-width:1.0;" x1="1344" x2="1764.5" y1="1667.2686" y2="1667.2686"/><line style="stroke:#181818;stroke-width:1.0;" x1="1764.5" x2="1764.5" y1="1667.2686" y2="1682.2686"/><polygon fill="#181818" points="1760.5,1672.2686,1764.5,1682.2686,1768.5,1672.2686,1764.5,1676.2686" style="stroke:#181818;stroke-width:1.0;"/><line style="stroke:#181818;stroke-width:1.0;" x1="1764.5" x2="1764.5" y1="1770.2061" y2="1775.2061"/><line style="stroke:#181818;stroke-width:1.0;" x1="1764.5" x2="345" y1="1775.2061" y2="1775.2061"/><line style="stroke:#181818;stroke-width:1.0;" x1="345" x2="345" y1="1775.2061" y2="1790.2061"/><polygon fill="#181818" points="341,1780.2061,345,1790.2061,349,1780.2061,345,1784.2061" style="stroke:#181818;stroke-width:1.0;"/><line style="stroke:#181818;stroke-width:1.0;" x1="345" x2="345" y1="1878.1436" y2="1883.1436"/><line style="stroke:#181818;stroke-width:1.0;" x1="345" x2="1344" y1="1883.1436" y2="1883.1436"/><line style="stroke:#181818;stroke-width:1.0;" x1="1344" x2="1344" y1="1883.1436" y2="1898.1436"/><polygon fill="#181818" points="1340,1888.1436,1344,1898.1436,1348,1888.1436,1344,1892.1436" style="stroke:#181818;stroke-width:1.0;"/><line style="stroke:#181818;stroke-width:1.0;" x1="1344" x2="1344" y1="2040.0498" y2="2045.0498"/><line style="stroke:#181818;stroke-width:1.0;" x1="1344" x2="1055.5" y1="2045.0498" y2="2045.0498"/><line style="stroke:#181818;stroke-width:1.0;" x1="1055.5" x2="1055.5" y1="2045.0498" y2="2060.0498"/><polygon fill="#181818" points="1051.5,2050.0498,1055.5,2060.0498,1059.5,2050.0498,1055.5,2054.0498" style="stroke:#181818;stroke-width:1.0;"/><line style="stroke:#181818;stroke-width:1.0;" x1="1055.5" x2="1055.5" y1="2094.0186" y2="2099.0186"/><line style="stroke:#181818;stroke-width:1.0;" x1="1055.5" x2="345" y1="2099.0186" y2="2099.0186"/><line style="stroke:#181818;stroke-width:1.0;" x1="345" x2="345" y1="2099.0186" y2="2114.0186"/><polygon fill="#181818" points="341,2104.0186,345,2114.0186,349,2104.0186,345,2108.0186" style="stroke:#181818;stroke-width:1.0;"/><line style="stroke:#181818;stroke-width:1.0;" x1="345" x2="345" y1="2201.9561" y2="2206.9561"/><line style="stroke:#181818;stroke-width:1.0;" x1="345" x2="1764.5" y1="2206.9561" y2="2206.9561"/><line style="stroke:#181818;stroke-width:1.0;" x1="1764.5" x2="1764.5" y1="2206.9561" y2="2221.9561"/><polygon fill="#181818" points="1760.5,2211.9561,1764.5,2221.9561,1768.5,2211.9561,1764.5,2215.9561" style="stroke:#181818;stroke-width:1.0;"/><line style="stroke:#181818;stroke-width:1.0;" x1="1764.5" x2="1764.5" y1="2417.8311" y2="2422.8311"/><line style="stroke:#181818;stroke-width:1.0;" x1="1764.5" x2="1344" y1="2422.8311" y2="2422.8311"/><line style="stroke:#181818;stroke-width:1.0;" x1="1344" x2="1344" y1="2422.8311" y2="2437.8311"/><polygon fill="#181818" points="1340,2427.8311,1344,2437.8311,1348,2427.8311,1344,2431.8311" style="stroke:#181818;stroke-width:1.0;"/><text fill="#000000" font-family="sans-serif" font-size="18" lengthAdjust="spacing" textLength="41" x="324" y="29.4531">User</text><text fill="#000000" font-family="sans-serif" font-size="18" lengthAdjust="spacing" textLength="140" x="697.5" y="29.4531">LocationService</text><text fill="#000000" font-family="sans-serif" font-size="18" lengthAdjust="spacing" textLength="167" x="908.5" y="29.4531">NotificationService</text><text fill="#000000" font-family="sans-serif" font-size="18" lengthAdjust="spacing" textLength="81" x="1260" y="29.4531">Database</text><text fill="#000000" font-family="sans-serif" font-size="18" lengthAdjust="spacing" textLength="106" x="1525.5" y="29.4531">WeatherAPI</text><text fill="#000000" font-family="sans-serif" font-size="18" lengthAdjust="spacing" textLength="100" x="1713.5" y="29.4531">DisasterAPI</text><!--SRC=[TLJBZk903BpdAtm4YVs1S5WXO6T66cOHMHZjiKaSQ2dfxkrsPeIKZrztNkG1ntOvhdBPSNbqQCl0aR0KXByDAbWPimo2yCKAHR17cqldf5RkvpAGASnw4QXoC9a3NVd3sLzqym2WVDUn84w8q7x964kEXGVyLw0ZQ35OnJ4wj_JOADQMzLZveKccydczFjwl-I0-g5ltZPb3c7reBplSMvqR0jAmLUASeSzpf4s0Af4fMxA-QitvgyAtIstn7T9L9xKvaRmeE9gH8U6MQIria8JC7Cmyjn8vBc2RSsG1U-7SjxR9l9As4IJEmjLzHgGjWly2VBpgRQrLAcrUqO-QwKIygHxpscBY5OlCJHbE8fE981ndXRqtL4aJurW8ILKWV4hse23eKpy3bvsV6-bC9cxmgdE4ABQ838OdYTzmG97z8CdnFvWRj88AomCfFr6mjNQrVok3RWTwAOr9OSGS3-AD-evvKBoXPamuxzegGqjiHTb6XgmrF20SXCPSRRc69X8fqWrU2fbW9XLMHDrSmbz8yNM0XlV74uP-DYigphaaNZ6q5rJnZJqrsXBCDkXYAutVdWLlRoB5VCXTxroJtlGttBd9b7R2F3MAiO5Bz_UuWQfA4Ew44XViAVUh968QMNGqzTfsu4Ja0MEKNpWu4hx8mwDIY-j3Ku53zDxYNUehPbCdJcXbwWTGPI-RG7j0eg8vMntDWIV4Fqv4l9dLBD_rXV-WX-rNfw7D73aGhhFgOFcBxY_PVm00]--></g></svg>